<svg width="24" height="25" viewBox="0 0 24 25" fill="none" xmlns="http://www.w3.org/2000/svg">
<mask id="mask0_2324_2151" style="mask-type:alpha" maskUnits="userSpaceOnUse" x="0" y="0" width="24" height="25">
<rect x="24" y="24.0278" width="24" height="24" transform="rotate(-180 24 24.0278)" fill="#D9D9D9"/>
</mask>
<g mask="url(#mask0_2324_2151)">
<path d="M12 12.7028L9.625 10.3278C9.44167 10.1445 9.2125 10.0528 8.9375 10.0528C8.6625 10.0528 8.425 10.1445 8.225 10.3278C8.025 10.5278 7.925 10.7653 7.925 11.0403C7.925 11.3153 8.025 11.5528 8.225 11.7528L11.3 14.8278C11.5 15.0278 11.7333 15.1278 12 15.1278C12.2667 15.1278 12.5 15.0278 12.7 14.8278L15.8 11.7278C16 11.5278 16.0958 11.2945 16.0875 11.0278C16.0792 10.7612 15.975 10.5278 15.775 10.3278C15.575 10.1445 15.3417 10.0487 15.075 10.0403C14.8083 10.032 14.575 10.1278 14.375 10.3278L12 12.7028ZM12 2.02783C13.3833 2.02783 14.6833 2.29033 15.9 2.81533C17.1167 3.34033 18.175 4.05283 19.075 4.95283C19.975 5.85283 20.6875 6.91117 21.2125 8.12783C21.7375 9.3445 22 10.6445 22 12.0278C22 13.4112 21.7375 14.7112 21.2125 15.9278C20.6875 17.1445 19.975 18.2028 19.075 19.1028C18.175 20.0028 17.1167 20.7153 15.9 21.2403C14.6833 21.7653 13.3833 22.0278 12 22.0278C10.6167 22.0278 9.31667 21.7653 8.1 21.2403C6.88333 20.7153 5.825 20.0028 4.925 19.1028C4.025 18.2028 3.3125 17.1445 2.7875 15.9278C2.2625 14.7112 2 13.4112 2 12.0278C2 10.6445 2.2625 9.3445 2.7875 8.12783C3.3125 6.91116 4.025 5.85283 4.925 4.95283C5.825 4.05283 6.88333 3.34033 8.1 2.81533C9.31667 2.29033 10.6167 2.02783 12 2.02783Z" fill="#8D7C4B"/>
</g>
</svg>
